<svg width="66" height="66" viewBox="0 0 66 66" fill="none" xmlns="http://www.w3.org/2000/svg">
<path d="M29.6464 2.78502C29.9132 -0.928318 35.3642 -0.928318 35.631 2.78502L36.5874 16.0968C36.7644 18.5604 39.6763 19.7666 41.5435 18.1497L51.6327 9.41316C54.4471 6.97609 58.3015 10.8305 55.8644 13.6449L47.1279 23.7341C45.511 25.6013 46.7172 28.5132 49.1808 28.6902L62.4926 29.6466C66.2059 29.9134 66.2059 35.3644 62.4926 35.6312L49.1808 36.5877C46.7172 36.7647 45.511 39.6766 47.1279 41.5438L55.8644 51.6329C58.3015 54.4473 54.4471 58.3017 51.6327 55.8647L41.5435 47.1281C39.6763 45.5113 36.7644 46.7174 36.5874 49.181L35.631 62.4928C35.3642 66.2061 29.9132 66.2061 29.6464 62.4928L28.6899 49.181C28.5129 46.7174 25.601 45.5113 23.7338 47.1281L13.6446 55.8647C10.8303 58.3017 6.97585 54.4473 9.41291 51.6329L18.1494 41.5438C19.7663 39.6766 18.5602 36.7647 16.0965 36.5877L2.78477 35.6312C-0.928562 35.3644 -0.928562 29.9134 2.78477 29.6466L16.0965 28.6902C18.5602 28.5132 19.7663 25.6013 18.1494 23.734L9.41291 13.6449C6.97585 10.8305 10.8303 6.97609 13.6446 9.41316L23.7338 18.1497C25.601 19.7666 28.5129 18.5604 28.6899 16.0968L29.6464 2.78502Z" fill="black"/>
</svg>
