<svg width="810" height="175" viewBox="0 0 810 175" fill="none" xmlns="http://www.w3.org/2000/svg">
<path d="M548.226 102.393V0.597656H560.3V174.389H557.786L545.29 174.458L531.191 68.2852V174.389H519.117V0.597656H534.708L548.226 102.393Z" fill="#F2F2F2"/>
<path d="M487.03 12.623H463.935C460.616 12.623 457.922 15.317 457.922 18.6357V156.352C457.922 159.67 460.617 162.363 463.935 162.363H487.03V174.389H457.872C454.684 174.389 451.625 173.122 449.37 170.867C447.115 168.612 445.848 165.553 445.848 162.364V12.6221C445.848 9.43291 447.115 6.37404 449.37 4.11914C451.625 1.8644 454.684 0.597688 457.872 0.597656H487.03V12.623Z" fill="#F2F2F2"/>
<path d="M512.965 12.5537H509.044V162.363H512.965V174.389H493.104V162.363H496.97V12.5537H493.104V0.52832H512.965V12.5537Z" fill="#F2F2F2"/>
<path d="M607.581 12.623H578.473V81.4805H607.581V93.5059H578.473V162.363H607.581V174.389H566.398V0.597656H607.581V12.623Z" fill="#F2F2F2"/>
<path d="M642.126 118.893L655.773 0.52832H670.306V174.319H658.231V87.0938L648.214 174.319H636.045V174.313L636.038 174.319L625.859 85.6934V174.389H613.785V0.52832H628.479L642.126 118.893Z" fill="#F2F2F2"/>
<path fill-rule="evenodd" clip-rule="evenodd" d="M718 81.4805V174.389H705.926V93.5059H688.892V174.389H676.817V81.4805L692.62 0.597656H702.246L718 81.4805ZM688.806 81.4805H706.267L697.408 26.3564L688.806 81.4805Z" fill="#F2F2F2"/>
<path d="M41.1826 12.5527H26.6279V174.319H14.5537V12.5527H0V0.52832H41.1826V12.5527Z" fill="#F2F2F2"/>
<path d="M59.7646 81.4102H76.7988V0.52832H88.873V174.319H76.7988V93.4365H59.7646V174.319H47.6904V0.52832H59.7646V81.4102Z" fill="#F2F2F2"/>
<path d="M136.44 12.5527H107.332V81.4102H136.44V93.4365H107.332V162.294H136.44V174.319H95.2578V0.52832H136.44V12.5527Z" fill="#F2F2F2"/>
<path d="M203.057 0.52832C204.708 0.52832 206.292 1.18405 207.46 2.35156C208.628 3.51923 209.285 5.10332 209.285 6.75488V20.3887H197.259V12.5527H180.176V81.4102H197.26C200.449 81.4102 203.508 82.6777 205.763 84.9326C208.018 87.1875 209.285 90.2469 209.285 93.4355V162.295C209.285 165.484 208.018 168.543 205.763 170.798C203.508 173.053 200.448 174.319 197.26 174.319H180.127V174.25H174.122C170.798 174.25 168.102 171.554 168.102 168.229V154.389H180.127V162.294H197.211V93.4365H180.126C176.937 93.4365 173.879 92.1689 171.624 89.9141C169.369 87.6592 168.102 84.6011 168.102 81.4121V12.5527C168.102 9.36354 169.369 6.30473 171.624 4.0498C173.879 1.79492 176.937 0.528371 180.126 0.52832H203.057Z" fill="#F2F2F2"/>
<path fill-rule="evenodd" clip-rule="evenodd" d="M307.174 0.52832C310.363 0.52832 313.421 1.79499 315.677 4.0498C317.932 6.30473 319.199 9.36354 319.199 12.5527V162.295C319.199 165.484 317.932 168.543 315.677 170.798C313.421 173.053 310.363 174.319 307.174 174.319H290.041C286.852 174.319 283.793 173.053 281.538 170.798C279.283 168.543 278.017 165.484 278.017 162.295V12.5527C278.017 9.36359 279.283 6.30472 281.538 4.0498C283.793 1.79488 286.852 0.52832 290.041 0.52832H307.174ZM296.104 12.5527C292.785 12.5527 290.091 15.2469 290.091 18.5654V156.281C290.091 159.599 292.785 162.294 296.104 162.294H301.112C304.431 162.294 307.125 159.599 307.125 156.281V18.5654C307.125 15.247 304.431 12.5529 301.112 12.5527H296.104Z" fill="#F2F2F2"/>
<path fill-rule="evenodd" clip-rule="evenodd" d="M360.845 0.52832C364.165 0.52832 366.857 3.21932 366.857 6.54004V75.4248C366.857 78.7311 364.177 81.4111 360.871 81.4111C364.18 81.4251 366.857 84.1121 366.857 87.4238V174.319H354.783V99.4736C354.783 96.155 352.089 93.4611 348.771 93.4609H354.783V93.4365H337.749V174.319H325.675V0.52832H360.845ZM337.749 81.4102H342.709C349.373 81.4101 354.783 76.0008 354.783 69.3369V18.5654C354.783 15.247 352.089 12.5529 348.771 12.5527H337.749V81.4102Z" fill="#F2F2F2"/>
<path fill-rule="evenodd" clip-rule="evenodd" d="M402.258 0.52832C402.258 0.52832 404.846 0.54902 407.563 2.21875C408.615 2.8652 411.095 4.54632 412.562 8.22559C413.844 11.4388 414.332 16.1144 414.332 19.6543V155.123C414.332 158.663 413.844 163.339 412.562 166.552C411.095 170.231 408.615 171.912 407.563 172.559C404.846 174.228 402.258 174.25 402.258 174.25V174.319H373.149V0.52832H402.258ZM385.224 162.294H390.184C396.847 162.294 402.258 156.884 402.258 150.22V24.627C402.258 17.9635 396.847 12.5527 390.184 12.5527H385.224V162.294Z" fill="#F2F2F2"/>
<path d="M249.528 154.487L259.824 160.389V0.458008H271.898V174.25H259.824L249.528 168.349V174.25H237.454V168.517L227.452 174.25H215.378V0.458008H227.452V160.389L237.454 154.656V0H249.528V154.487Z" fill="#F2F2F2"/>
<path d="M758.788 66.6582C760.055 65.3917 762.108 65.3917 763.375 66.6582L788.527 91.8105L794.297 86.043C794.352 85.9875 794.409 85.9344 794.468 85.8838C795.061 85.1209 795.986 84.6289 797.027 84.6289H806.757C808.548 84.6289 810 86.0809 810 87.8721C810 89.6631 808.548 91.1152 806.757 91.1152H798.396L793.114 96.3975L801.215 104.498C802.481 105.765 802.481 107.818 801.215 109.085C799.948 110.352 797.894 110.351 796.628 109.085L788.527 100.984L783.243 106.269V114.629C783.243 116.42 781.791 117.872 780 117.872C778.209 117.872 776.757 116.42 776.757 114.629V104.898C776.757 103.834 777.272 102.892 778.063 102.301C778.135 102.213 778.212 102.127 778.294 102.045L783.94 96.3975L758.788 71.2451C757.522 69.9786 757.522 67.9248 758.788 66.6582Z" fill="#F2F2F2"/>
<path d="M765.668 97.6182C766.935 96.3516 768.988 96.3517 770.255 97.6182C771.521 98.8847 771.521 100.939 770.255 102.205L763.375 109.085C762.108 110.351 760.055 110.352 758.788 109.085C757.522 107.818 757.522 105.765 758.788 104.498L765.668 97.6182Z" fill="#F2F2F2"/>
<path d="M762.975 84.6279C764.766 84.628 766.218 86.0802 766.218 87.8711C766.218 89.6622 764.766 91.1151 762.975 91.1152H753.245C751.454 91.1152 750.001 89.6623 750.001 87.8711C750.001 86.0801 751.454 84.6279 753.245 84.6279H762.975Z" fill="#F2F2F2"/>
<path d="M796.63 66.6592C797.896 65.3928 799.949 65.3927 801.216 66.6592C802.482 67.9257 802.482 69.9795 801.216 71.2461L794.336 78.126C793.069 79.3923 791.016 79.3925 789.749 78.126C788.483 76.8595 788.483 74.8056 789.749 73.5391L796.63 66.6592Z" fill="#F2F2F2"/>
<path d="M780 57.8721C781.791 57.8721 783.243 59.324 783.243 61.1152V70.8447C783.243 72.6359 781.791 74.0879 780 74.0879C778.209 74.0878 776.757 72.6359 776.757 70.8447V61.1152C776.757 59.3241 778.209 57.8721 780 57.8721Z" fill="#F2F2F2"/>
</svg>
